<svg xmlns="http://www.w3.org/2000/svg" version="1.1" xmlns:xlink="http://www.w3.org/1999/xlink" xmlns:svgjs="http://svgjs.dev/svgjs" width="1500" height="1500" viewBox="0 0 1500 1500"><g transform="matrix(1,0,0,1,-0.323615160350073,-0.3236151603499593)"><svg viewBox="0 0 343 343" data-background-color="#444444" preserveAspectRatio="xMidYMid meet" height="1500" width="1500" xmlns="http://www.w3.org/2000/svg" xmlns:xlink="http://www.w3.org/1999/xlink"><g id="tight-bounds" transform="matrix(1,0,0,1,0.0740000000000407,0.07400000000001228)"><svg viewBox="0 0 342.85155851775386 342.85155851775386" height="342.85155851775386" width="342.85155851775386"><g><svg></svg></g><g><svg viewBox="0 0 342.85155851775386 342.85155851775386" height="342.85155851775386" width="342.85155851775386"><g><path d="M0 171.426c0-94.676 76.75-171.426 171.426-171.426 94.676 0 171.426 76.75 171.426 171.426 0 94.676-76.75 171.426-171.426 171.426-94.676 0-171.426-76.75-171.426-171.426zM171.426 341.124c93.722 0 169.698-75.977 169.698-169.698 0-93.722-75.977-169.698-169.698-169.699-93.722 0-169.698 75.977-169.699 169.699 0 93.722 75.977 169.698 169.699 169.698z" data-fill-palette-color="tertiary" fill="#ffffff" stroke="transparent"></path><ellipse rx="164.56874808852186" ry="164.56874808852186" cx="171.42577925887693" cy="171.42577925887693" fill="#ffffff" stroke="transparent" stroke-width="0" fill-opacity="1" data-fill-palette-color="tertiary"></ellipse></g><g transform="matrix(1,0,0,1,64.84655864529837,146.3530817861474)"><svg viewBox="0 0 213.1584412271571 50.14539494545905" height="50.14539494545905" width="213.1584412271571"><g><svg viewBox="0 0 213.1584412271571 50.14539494545905" height="50.14539494545905" width="213.1584412271571"><g><svg viewBox="0 0 213.1584412271571 50.14539494545905" height="50.14539494545905" width="213.1584412271571"><g transform="matrix(1,0,0,1,0,30.991865809765876)"><svg viewBox="0 0 213.1584412271571 19.153529135693176" height="19.153529135693176" width="213.1584412271571"><g id="textblocktransform"><svg viewBox="0 0 213.1584412271571 19.153529135693176" height="19.153529135693176" width="213.1584412271571" id="textblock"><g><svg viewBox="0 0 213.1584412271571 19.153529135693176" height="19.153529135693176" width="213.1584412271571"><g transform="matrix(1,0,0,1,0,0)"><svg width="213.1584412271571" viewBox="3.78 -33.48 476.82000000000005 42.86" height="19.153529135693176" data-palette-color="#444444"><path d="M7.93-31.95L7.93 0 3.78 0 3.78-31.95 7.93-31.95ZM6 0L6-3.53 22.85-3.53 22.85 0 6 0ZM37.9 0.55L37.9 0.55Q32.32 0.55 29.5-2.18 26.67-4.9 26.67-9.98L26.67-9.98 26.67-14.33Q26.67-19.48 29.3-22.26 31.92-25.05 36.97-25.05L36.97-25.05Q40.37-25.05 42.65-23.79 44.92-22.53 46.07-20.2 47.22-17.88 47.22-14.65L47.22-14.65 47.22-13.75Q47.22-12.95 47.16-12.15 47.1-11.35 47-10.58L47-10.58 43.27-10.58Q43.32-11.78 43.34-12.85 43.35-13.93 43.35-14.83L43.35-14.83Q43.35-17.05 42.64-18.59 41.92-20.13 40.51-20.94 39.1-21.75 36.97-21.75L36.97-21.75Q33.82-21.75 32.25-19.93 30.67-18.1 30.67-14.7L30.67-14.7 30.67-12.38 30.7-11.88 30.7-9.55Q30.7-8.03 31.15-6.8 31.6-5.58 32.56-4.69 33.52-3.8 35.01-3.34 36.5-2.88 38.55-2.88L38.55-2.88Q40.92-2.88 42.97-3.5 45.02-4.13 46.82-5.2L46.82-5.2 46.45-1.7Q44.82-0.68 42.67-0.06 40.52 0.55 37.9 0.55ZM46.15-10.58L28.8-10.58 28.8-13.63 46.15-13.63 46.15-10.58ZM62.32 0.63L62.32 0.63Q57.07 0.63 54.36-2.21 51.65-5.05 51.65-10.38L51.65-10.38 51.65-14.1Q51.65-19.4 54.37-22.23 57.1-25.05 62.32-25.05L62.32-25.05Q67.57-25.05 70.28-22.23 73-19.4 73-14.1L73-14.1 73-10.38Q73-5.05 70.28-2.21 67.57 0.63 62.32 0.63ZM62.32-2.68L62.32-2.68Q65.57-2.68 67.26-4.6 68.95-6.53 68.95-10.15L68.95-10.15 68.95-14.33Q68.95-17.93 67.26-19.84 65.57-21.75 62.32-21.75L62.32-21.75Q59.1-21.75 57.4-19.84 55.7-17.93 55.7-14.33L55.7-14.33 55.7-10.15Q55.7-6.53 57.4-4.6 59.1-2.68 62.32-2.68ZM98.99 0L94.94 0 94.94-15.18Q94.94-17.15 94.41-18.57 93.87-20 92.66-20.79 91.44-21.58 89.34-21.58L89.34-21.58Q87.42-21.58 86.01-20.85 84.59-20.13 83.72-18.89 82.84-17.65 82.49-16.07L82.49-16.07 81.77-18.95 82.64-18.95Q83.04-20.6 84.04-21.96 85.04-23.33 86.73-24.14 88.42-24.95 90.87-24.95L90.87-24.95Q93.77-24.95 95.56-23.85 97.34-22.75 98.17-20.69 98.99-18.63 98.99-15.63L98.99-15.63 98.99 0ZM82.67 0L78.62 0 78.62-24.4 82.67-24.4 82.49-18.55 82.67-18.32 82.67 0ZM127.84 0L123.69 0 123.69-31.28 127.84-31.28 127.84 0ZM137.41-28.48L114.11-28.48 114.11-31.95 137.41-31.95 137.41-28.48ZM152.04 0.63L152.04 0.63Q146.79 0.63 144.07-2.21 141.36-5.05 141.36-10.38L141.36-10.38 141.36-14.1Q141.36-19.4 144.09-22.23 146.81-25.05 152.04-25.05L152.04-25.05Q157.29-25.05 160-22.23 162.71-19.4 162.71-14.1L162.71-14.1 162.71-10.38Q162.71-5.05 160-2.21 157.29 0.63 152.04 0.63ZM152.04-2.68L152.04-2.68Q155.29-2.68 156.97-4.6 158.66-6.53 158.66-10.15L158.66-10.15 158.66-14.33Q158.66-17.93 156.97-19.84 155.29-21.75 152.04-21.75L152.04-21.75Q148.81-21.75 147.11-19.84 145.41-17.93 145.41-14.33L145.41-14.33 145.41-10.15Q145.41-6.53 147.11-4.6 148.81-2.68 152.04-2.68ZM168.03-24.4L172.06-24.4 172.06-9.22Q172.06-7.3 172.6-5.86 173.13-4.42 174.36-3.64 175.58-2.85 177.66-2.85L177.66-2.85Q179.61-2.85 181.01-3.56 182.41-4.28 183.3-5.53 184.18-6.78 184.51-8.35L184.51-8.35 185.23-5.48 184.36-5.48Q183.98-3.83 182.98-2.46 181.98-1.1 180.3-0.29 178.61 0.53 176.13 0.53L176.13 0.53Q173.26 0.53 171.47-0.56 169.68-1.65 168.86-3.74 168.03-5.83 168.03-8.78L168.03-8.78 168.03-24.4ZM184.33-24.4L188.38-24.4 188.38 0 184.33 0 184.51-5.85 184.33-6.1 184.33-24.4ZM198.83-14.93L198.83-14.93 197.91-18.05 198.91-18.1Q199.71-21.2 201.66-22.99 203.61-24.78 206.83-24.78L206.83-24.78Q207.63-24.78 208.27-24.65 208.91-24.53 209.41-24.35L209.41-24.35 209.66-20.43Q209.03-20.63 208.27-20.75 207.51-20.88 206.58-20.88L206.58-20.88Q203.83-20.88 201.79-19.35 199.76-17.82 198.83-14.93ZM199.03 0L194.98 0 194.98-24.4 198.93-24.4 198.73-17.2 199.03-16.9 199.03 0ZM237.9 0L227.45 0 227.45-3.43 237.5-3.43Q240.75-3.43 242.11-4.81 243.48-6.2 243.48-8.65L243.48-8.65 243.48-9.55Q243.48-12.05 242.09-13.43 240.7-14.8 237.25-14.8L237.25-14.8 227.48-14.8 227.48-18.07 237.2-18.07Q240.28-18.07 241.59-19.41 242.9-20.75 242.9-23.13L242.9-23.13 242.9-23.58Q242.9-25.93 241.64-27.24 240.38-28.55 237.18-28.55L237.18-28.55 227.38-28.55 227.38-31.95 237.55-31.95Q242.65-31.95 244.85-29.93 247.05-27.9 247.05-24.23L247.05-24.23 247.05-23.73Q247.05-20.8 245.65-19.13 244.25-17.45 241.3-17.13L241.3-17.13 241.28-16.98Q244.65-16.48 246.18-14.63 247.7-12.78 247.7-9.47L247.7-9.47 247.7-8.45Q247.7-4.48 245.4-2.24 243.1 0 237.9 0L237.9 0ZM228.73 0L224.63 0 224.63-31.95 228.73-31.95 228.73 0ZM262.9 0.63L262.9 0.63Q257.65 0.63 254.94-2.21 252.22-5.05 252.22-10.38L252.22-10.38 252.22-14.1Q252.22-19.4 254.95-22.23 257.67-25.05 262.9-25.05L262.9-25.05Q268.15-25.05 270.86-22.23 273.57-19.4 273.57-14.1L273.57-14.1 273.57-10.38Q273.57-5.05 270.86-2.21 268.15 0.63 262.9 0.63ZM262.9-2.68L262.9-2.68Q266.15-2.68 267.84-4.6 269.52-6.53 269.52-10.15L269.52-10.15 269.52-14.33Q269.52-17.93 267.84-19.84 266.15-21.75 262.9-21.75L262.9-21.75Q259.67-21.75 257.97-19.84 256.27-17.93 256.27-14.33L256.27-14.33 256.27-10.15Q256.27-6.53 257.97-4.6 259.67-2.68 262.9-2.68ZM288.9 0.63L288.9 0.63Q283.65 0.63 280.93-2.21 278.22-5.05 278.22-10.38L278.22-10.38 278.22-14.1Q278.22-19.4 280.95-22.23 283.67-25.05 288.9-25.05L288.9-25.05Q294.15-25.05 296.86-22.23 299.57-19.4 299.57-14.1L299.57-14.1 299.57-10.38Q299.57-5.05 296.86-2.21 294.15 0.63 288.9 0.63ZM288.9-2.68L288.9-2.68Q292.15-2.68 293.83-4.6 295.52-6.53 295.52-10.15L295.52-10.15 295.52-14.33Q295.52-17.93 293.83-19.84 292.15-21.75 288.9-21.75L288.9-21.75Q285.67-21.75 283.97-19.84 282.27-17.93 282.27-14.33L282.27-14.33 282.27-10.15Q282.27-6.53 283.97-4.6 285.67-2.68 288.9-2.68ZM325.89 0L321.04 0 311.39-11.38 308.82-11.38 308.82-14.53 311.39-14.53 320.64-24.4 325.44-24.4 314.37-12.63 314.37-13.6 325.89 0ZM309.22 0L305.19 0 305.19-33.13 309.22-33.13 309.22 0ZM334.04 0L329.99 0 329.99-24.4 334.04-24.4 334.04 0ZM332.02-28.4L332.02-28.4Q330.77-28.4 330.15-29.06 329.54-29.73 329.54-30.88L329.54-30.88 329.54-31Q329.54-32.18 330.15-32.83 330.77-33.48 332.02-33.48L332.02-33.48Q333.27-33.48 333.89-32.83 334.52-32.18 334.52-31L334.52-31 334.52-30.88Q334.52-29.7 333.89-29.05 333.27-28.4 332.02-28.4ZM361.11 0L357.06 0 357.06-15.18Q357.06-17.15 356.53-18.57 355.99-20 354.78-20.79 353.56-21.58 351.46-21.58L351.46-21.58Q349.54-21.58 348.13-20.85 346.71-20.13 345.84-18.89 344.96-17.65 344.61-16.07L344.61-16.07 343.89-18.95 344.76-18.95Q345.16-20.6 346.16-21.96 347.16-23.33 348.85-24.14 350.54-24.95 352.99-24.95L352.99-24.95Q355.89-24.95 357.68-23.85 359.46-22.75 360.29-20.69 361.11-18.63 361.11-15.63L361.11-15.63 361.11 0ZM344.79 0L340.74 0 340.74-24.4 344.79-24.4 344.61-18.55 344.79-18.32 344.79 0ZM376.89-7.3L376.89-7.3Q371.91-7.3 369.25-9.47 366.59-11.65 366.59-15.7L366.59-15.7 366.59-16.32Q366.59-18.85 367.62-20.73 368.66-22.6 370.94-23.66 373.21-24.73 376.89-24.83L376.89-24.83 389.34-25.23 389.34-22.03 381.99-22.28 381.96-22.1Q383.69-21.75 384.79-20.9 385.89-20.05 386.42-18.78 386.96-17.5 386.96-15.8L386.96-15.8 386.96-15.25Q386.96-11.38 384.41-9.34 381.86-7.3 376.89-7.3ZM376.71 6.15L376.71 6.15 377.29 6.15Q379.54 6.15 381.15 5.81 382.76 5.48 383.64 4.75 384.51 4.03 384.51 2.83L384.51 2.83 384.51 2.73Q384.51 1.33 383.5 0.59 382.49-0.15 380.04-0.38L380.04-0.38 373.14-1 374.29-1.05Q372.89-0.85 371.82-0.4 370.76 0.05 370.16 0.79 369.56 1.53 369.56 2.63L369.56 2.63 369.56 2.68Q369.56 3.95 370.44 4.73 371.31 5.5 372.91 5.83 374.51 6.15 376.71 6.15ZM377.21 9.38L376.49 9.38Q373.19 9.38 370.8 8.81 368.41 8.25 367.1 6.99 365.79 5.73 365.79 3.6L365.79 3.6 365.79 3.5Q365.79 2 366.5 1 367.21 0 368.42-0.58 369.64-1.15 371.14-1.35L371.14-1.35 371.11-1.5Q369.06-1.85 368.09-2.71 367.11-3.58 367.11-4.95L367.11-4.95 367.11-4.98Q367.11-5.93 367.55-6.6 367.99-7.28 368.87-7.68 369.76-8.08 371.14-8.18L371.14-8.18 371.14-8.68 375.79-7.5 373.89-7.55Q372.19-7.53 371.54-7.14 370.89-6.75 370.89-5.98L370.89-5.98 370.89-5.95Q370.89-5.13 371.81-4.7 372.74-4.28 374.96-4.03L374.96-4.03 380.89-3.43Q384.76-3.03 386.54-1.56 388.31-0.1 388.31 2.75L388.31 2.75 388.31 2.88Q388.31 5.15 386.96 6.6 385.61 8.05 383.14 8.71 380.66 9.38 377.21 9.38L377.21 9.38ZM376.84-10.3L376.84-10.3Q378.94-10.3 380.32-10.91 381.71-11.53 382.42-12.76 383.14-14 383.14-15.8L383.14-15.8 383.14-16.4Q383.14-18.15 382.45-19.38 381.76-20.6 380.39-21.24 379.01-21.88 376.94-21.88L376.94-21.88 376.79-21.88Q374.54-21.88 373.12-21.19 371.71-20.5 371.07-19.26 370.44-18.03 370.44-16.38L370.44-16.38 370.44-15.8Q370.44-14 371.15-12.78 371.86-11.55 373.29-10.93 374.71-10.3 376.84-10.3ZM405.66 0L401.46 0 411.46-31.95 418-31.95 428.03 0 423.83 0 415.06-29.15 414.43-29.15 405.66 0ZM422-9.43L407.46-9.43 407.46-12.88 422-12.88 422-9.43ZM444.58 0.53L444.58 0.53Q442.33 0.53 440.68-0.23 439.03-0.98 438-2.38 436.98-3.78 436.63-5.63L436.63-5.63 435.3-5.63 436.48-9.43Q436.58-7.23 437.46-5.76 438.35-4.3 439.88-3.58 441.4-2.85 443.33-2.85L443.33-2.85Q446.4-2.85 448.04-4.65 449.68-6.45 449.68-9.93L449.68-9.93 449.68-14.6Q449.68-18.05 448.05-19.85 446.43-21.65 443.33-21.65L443.33-21.65Q441.48-21.65 440.05-20.93 438.63-20.2 437.69-18.95 436.75-17.7 436.4-16.1L436.4-16.1 435.4-18.93 436.58-18.93Q436.98-20.6 437.94-21.96 438.9-23.33 440.59-24.14 442.28-24.95 444.75-24.95L444.75-24.95Q449.15-24.95 451.45-22.21 453.75-19.48 453.75-14.28L453.75-14.28 453.75-10.23Q453.75-4.98 451.44-2.23 449.13 0.53 444.58 0.53ZM436.58 8.6L432.55 8.6 432.55-24.4 436.6-24.4 436.43-18.53 436.48-17.28 436.48-7 436.45-6.18 436.58 0.68 436.58 8.6ZM471.43 0.53L471.43 0.53Q469.18 0.53 467.53-0.23 465.88-0.98 464.85-2.38 463.83-3.78 463.48-5.63L463.48-5.63 462.15-5.63 463.33-9.43Q463.43-7.23 464.31-5.76 465.2-4.3 466.73-3.58 468.25-2.85 470.18-2.85L470.18-2.85Q473.25-2.85 474.89-4.65 476.53-6.45 476.53-9.93L476.53-9.93 476.53-14.6Q476.53-18.05 474.9-19.85 473.28-21.65 470.18-21.65L470.18-21.65Q468.33-21.65 466.9-20.93 465.48-20.2 464.54-18.95 463.6-17.7 463.25-16.1L463.25-16.1 462.25-18.93 463.43-18.93Q463.83-20.6 464.79-21.96 465.75-23.33 467.44-24.14 469.13-24.95 471.6-24.95L471.6-24.95Q476-24.95 478.3-22.21 480.6-19.48 480.6-14.28L480.6-14.28 480.6-10.23Q480.6-4.98 478.29-2.23 475.98 0.53 471.43 0.53ZM463.43 8.6L459.4 8.6 459.4-24.4 463.45-24.4 463.28-18.53 463.33-17.28 463.33-7 463.3-6.18 463.43 0.68 463.43 8.6Z" opacity="1" transform="matrix(1,0,0,1,0,0)" fill="#444444" class="wordmark-text-0" data-fill-palette-color="quaternary" id="text-0"></path></svg></g></svg></g></svg></g></svg></g><g transform="matrix(1,0,0,1,91.7978907497267,0)"><svg viewBox="0 0 29.5626597277037 26.470177265527973" height="26.470177265527973" width="29.5626597277037"><g><svg xmlns="http://www.w3.org/2000/svg" xmlns:xlink="http://www.w3.org/1999/xlink" xml:space="preserve" version="1.1" style="shape-rendering:geometricPrecision;text-rendering:geometricPrecision;image-rendering:optimizeQuality;" viewBox="22 64 803 719" x="0" y="0" fill-rule="evenodd" clip-rule="evenodd" height="26.470177265527973" width="29.5626597277037" class="icon-icon-0" data-fill-palette-color="quaternary" id="icon-0"><g fill="#444444" data-fill-palette-color="quaternary"><path class="" d="M480 408c-5-3-1-10 3-7l20 11c4 2 0 9-4 6l-19-10z m-332-34c-26 5-119 22-119 49 0 28 95 45 119 50-2-33-2-66 0-98l0-1z m-30-12c-8-3-37-34-38-42 0-16 67-9 78-7 20-95 71-198 160-236-161 29-281 166-289 330 20-19 71-32 106-38l-17-7z m38 16c-3 32-3 64 0 96 43 7 96 12 153 14-1-16-1-32-1-47l-152-63z m239 298l-25-179c-18 0-36 0-54-1 2 38 18 280 65 280 18 0 32-35 42-80l-28-20z m34 25c-8 32-18 60-31 74 106-12 169-123 195-225-40-11-90-28-127-39l-33 173 9 26-13-9z m174-397c5 21 8 42 11 62 33 6 96 19 119 41-7-164-127-301-288-330 79 33 127 118 152 203l51-12-43 33-2 3z m-106 141c25 10 54 22 82 33 10-1 19-3 28-4 3-34 3-68 0-101-16-3-33-5-50-7l-60 79z m65-86c15 2 30 4 44 6-2-17-5-34-9-53l-35 47z m-247 85c0 15 1 30 1 45 18 0 35 1 53 1l-3-25-51-21z m286 108c-23 90-73 182-156 218 114-21 208-96 255-197l-85-17c-5-1-9-2-14-4z m107 22c-57 124-182 209-327 209-198 0-359-161-359-360 0-198 161-359 359-359 199 0 360 161 360 359 0 34-4 67-13 98l50-36 47 4-64 54 54 17-60 1-7 74 0 5-5-2-25-9-2-1 0-2-7-51-1-1z m10-46c9-29 14-58 15-89-23 23-86 36-119 41-1 4-1 8-2 12 7 2 14 5 21 8l43 28 40 1 2-1z m-113-39l1-7c-4 0-9 1-13 1l12 6z m-16-208c-28-97-90-198-191-209 41 43 53 219 56 279 9 0 18 1 27 1l103-70 5-1z m-118 78c-6 0-11 0-17-1l0 13 17-12z m-24 17c0-6 0-12 0-18-44-1-87-1-131 0 0 5 0 10 0 15l85 34 46-31z m-139-6l1-12c-10 1-19 1-28 2l27 10z m-43-17c14-1 29-1 44-2 2-60 14-236 56-279-113 12-176 136-200 243 1 0 1 0 2 0l98 38z m-236 86c8 164 128 302 289 331-106-45-158-183-169-290-33-5-97-18-120-41z m585-65c3 33 3 66 0 99 25-5 120-22 120-50 0-27-95-45-120-49z m-168-23c-1-39-17-280-65-280-47 0-63 241-65 280 44-2 87-2 130 0z m-137 145c-57-3-109-8-152-14 12 113 77 278 208 293-42-44-54-219-56-279z m119 4c-5-2-3-9 2-8l21 8c5 1 3 9-2 7l-21-7z m-7 86c-5-1-3-9 2-7l14 4c5 1 3 9-2 7l-14-4z m-1 24c-5-1-3-9 2-7l11 3c5 2 3 9-2 8l-11-4z m2-48c-5-2-3-9 2-8l17 6c5 1 3 9-2 7l-17-5z m1-28c-5-2-3-9 2-8l21 7c5 1 2 8-3 7l-20-6z m-21-119l-238-93c-16-3-63-7-76-2 4 8 25 30 33 35l252 104 29 213 25 17-2-5 35-183c52 16 104 33 157 48l95 18c5 2 11 1 4-4l-87-56c-48-20-96-39-144-58l115-153 16-13-29 7-185 125z m287 121l26 17c17 0 34 0 52 0-17-6-34-11-50-16l-28-1z m28 40l6 46 18 7 6-68-23 0c5 7 1 16-7 15z m35-36l54-45-25-2-55 39 26 8z m-294-105c-4-2-1-9 4-7l20 11c4 2 1 9-4 7l-20-11z m59-65c-4-3 0-10 4-7l13 7c4 3 0 9-4 7l-13-7z m17-18c-4-3 0-10 4-7l11 6c4 3 0 9-4 7l-11-6z m-34 35c-4-2-1-9 4-7l16 10c4 2 0 9-4 6l-16-9z" fill="#444444" fill-rule="nonzero" data-fill-palette-color="quaternary"></path></g></svg></g></svg></g><g></g></svg></g></svg></g></svg></g></svg></g><defs></defs></svg><rect width="342.85155851775386" height="342.85155851775386" fill="none" stroke="none" visibility="hidden"></rect></g></svg></g></svg>